<?xml version="1.0" standalone="no"?><!DOCTYPE svg PUBLIC "-//W3C//DTD SVG 1.1//EN" "http://www.w3.org/Graphics/SVG/1.1/DTD/svg11.dtd"><svg t="1634204986937" class="icon" viewBox="0 0 1024 1024" version="1.1" xmlns="http://www.w3.org/2000/svg" p-id="966" xmlns:xlink="http://www.w3.org/1999/xlink" width="200" height="200"><defs><style type="text/css"></style></defs><path d="M688.8 873.2c-20.8 0-40.8-6.6-57.7-19.1L512 766.2l-119.1 87.9c-16.9 12.5-36.9 19.1-57.7 19.1-44 0-82.7-29.8-94.3-72.4-4.8-17.9-4-37.3 2.5-57.7l45.3-141.8-121.3-89.6c-37.7-27.8-50.2-78.7-29.7-121 16.1-33.2 51.6-54.6 90.6-54.6h145.1l45.8-143.3c12.9-40.5 50.2-67.7 92.7-67.7s79.8 27.2 92.7 67.7l45.8 143.3h148.2c46.8 0 87.1 33.5 95.7 79.7 6.8 36.2-9.1 74.6-40.4 97.7l-118.8 87.7 45.7 143c6 18.7 6.9 37.7 2.6 54.7-10.9 43.8-49.8 74.3-94.6 74.3zM512 694.4c6.7 0 13.4 2.1 19 6.3l138.1 102c5.9 4.3 12.7 6.6 19.7 6.6 15.4 0 28.9-10.6 32.7-25.8 1.4-5.5 0.9-12.3-1.5-19.6L667.3 599c-4.2-13.1 0.4-27.3 11.5-35.5L816 462.1c11.7-8.7 17.8-22.2 15.5-34.5-3-16.2-16.5-27.5-32.8-27.5H627.1c-13.9 0-26.2-9-30.5-22.3l-52.9-165.5c-4.4-13.9-17.2-23.2-31.7-23.2s-27.3 9.3-31.7 23.2l-52.9 165.5c-4.2 13.3-16.6 22.3-30.5 22.3H228.4c-14.6 0-27.5 7.3-33 18.5-7.2 14.8-3 31.9 10.1 41.6l139.7 103.2c11 8.1 15.6 22.4 11.5 35.5l-52.3 163.6c-2.7 8.3-3.3 15.7-1.7 21.5 4 14.8 17.4 25.2 32.5 25.2 7 0 13.9-2.3 19.7-6.6l138.1-102c5.6-4.1 12.3-6.2 19-6.2z" fill="#1296db" p-id="967"></path></svg>