<?xml version="1.0" standalone="no"?><!DOCTYPE svg PUBLIC "-//W3C//DTD SVG 1.1//EN" "http://www.w3.org/Graphics/SVG/1.1/DTD/svg11.dtd"><svg t="1634968609616" class="icon" viewBox="0 0 1024 1024" version="1.1" xmlns="http://www.w3.org/2000/svg" p-id="1436" xmlns:xlink="http://www.w3.org/1999/xlink" width="200" height="200"><defs><style type="text/css"></style></defs><path d="M856.029867 426.5984a34.133333 34.133333 0 0 1 34.048 31.573333l0.085333 2.56V887.466667a68.266667 68.266667 0 0 1-64.853333 68.181333l-3.413334 0.085333h-619.861333a68.266667 68.266667 0 0 1-68.1984-64.853333l-0.085333-3.413333V460.731733a34.133333 34.133333 0 0 1 68.181333-2.56l0.085333 2.56V887.466667h619.8784V460.731733a34.133333 34.133333 0 0 1 34.133334-34.133333z" fill="#1296db" p-id="1437"></path><path d="M810.222933 68.266667H215.552a68.266667 68.266667 0 0 0-62.941867 41.8304l-32.768 78.609066C82.909867 278.186667 68.266667 318.071467 68.266667 331.127467a196.488533 196.488533 0 0 0 104.174933 173.4656c27.016533 14.4384 58.197333 21.6064 92.501333 21.6064l6.0416-0.1024a196.096 196.096 0 0 0 114.295467-41.250134l3.669333-2.9696 3.498667 2.816a196.266667 196.266667 0 0 0 119.637333 41.216l5.9904-0.136533a195.959467 195.959467 0 0 0 113.5616-41.284267l3.362134-2.7136 3.6864 2.952534a195.925333 195.925333 0 0 0 120.576 41.096533c35.106133-0.170667 66.850133-7.714133 94.088533-22.647467a196.522667 196.522667 0 0 0 102.2976-172.680533l-0.068267-1.792c-1.399467-18.397867-24.405333-77.738667-82.244266-218.180267A68.266667 68.266667 0 0 0 810.222933 68.266667zM215.552 136.533333h594.670933l23.278934 56.866134c15.189333 37.358933 27.2896 67.703467 36.266666 91.0336l5.9392 15.598933c1.809067 4.778667 3.413333 9.147733 4.829867 13.090133l4.539733 12.970667 2.2528 7.202133 0.0512-2.986666a128.3584 128.3584 0 0 1-66.816 112.981333c-16.878933 9.250133-37.461333 14.148267-61.4912 14.267733a127.1808 127.1808 0 0 1-97.9456-45.4656 34.133333 34.133333 0 0 0-52.2752 0A127.146667 127.146667 0 0 1 512 457.6768a127.351467 127.351467 0 0 1-96.989867-45.482667 34.133333 34.133333 0 0 0-50.414933-1.979733l-1.8432 2.048a127.675733 127.675733 0 0 1-97.911467 45.687467c-23.415467 0-43.554133-4.642133-60.279466-13.568l-4.130134-2.304a128.170667 128.170667 0 0 1-63.829333-106.222934l-0.034133-1.809066 1.536-4.9152 1.621333-4.7104c2.5088-7.202133 6.058667-16.776533 10.666667-28.637867l9.813333-24.9344c13.294933-33.314133 31.744-78.097067 55.330133-134.2976z" fill="#1296db" p-id="1438"></path><path d="M546.133333 648.533333v170.666667h-68.266666V648.533333a34.133333 34.133333 0 1 1 68.266666 0z" fill="#d4237a" p-id="1439"></path></svg>