<?xml version="1.0" standalone="no"?><!DOCTYPE svg PUBLIC "-//W3C//DTD SVG 1.1//EN" "http://www.w3.org/Graphics/SVG/1.1/DTD/svg11.dtd"><svg t="1635427321604" class="icon" viewBox="0 0 1024 1024" version="1.1" xmlns="http://www.w3.org/2000/svg" p-id="1748" xmlns:xlink="http://www.w3.org/1999/xlink" width="200" height="200"><defs><style type="text/css"></style></defs><path d="M800.5 401L687 328.8c-16.4-10.4-25.3-28.2-25.3-46.2 0-1.7 0.2-3.3 0.3-5H236.3c-42.9 0-82.6 34.8-88.1 77.5L80.3 882.5c-5.5 42.6 25.1 77.5 68.1 77.5h646c42.9 0 73.6-34.8 68.1-77.5l-62-481.5z m-178.1-72.1c11.9 0 21.6 9.7 21.4 21.4 0 11.8-9.6 21.4-21.4 21.4s-21.4-9.6-21.4-21.4 9.6-21.4 21.4-21.4z m-291 0c11.8 0 21.4 9.6 21.4 21.4s-9.6 21.4-21.4 21.4-21.4-9.6-21.4-21.4 9.6-21.4 21.4-21.4zM642 611.2l-65.8 63c-1.8 1.2-4.6 8-4.4 11.6 0 0.6 0.1 1.1 0.1 1.4l16.6 89.7c0.4 1.6 0.5 3.3 0.5 5 0 4.1-0.9 9-4.5 13.2-3.4 4.3-9.3 6.5-14 6.4-4.6-0.1-8.3-1.4-11.7-3.2l-80.3-43.2c-1-0.6-3.8-1.4-6.8-1.4s-6 0.8-6.9 1.4l-80.3 43.2c-3.3 1.8-7.1 3.2-11.6 3.2h-0.5c-4.7 0-10.3-2.3-13.6-6.4-3.5-4.1-4.5-9.1-4.5-13.2 0-1.9 0.2-3.6 0.5-5.2l16.3-89.7c0.1-0.3 0.1-0.7 0.1-1.4 0.2-3.6-2.8-10.5-4.4-11.6L301 611c-3.9-3.6-7.5-8.7-7.6-15.9-0.2-5.5 2.9-11.1 6.8-14.1 3.7-3 7.9-4.2 12-4.8l90.3-12.2c1.1-0.1 4-1.2 6.3-3 2.4-1.6 4.2-4 4.7-5l39.6-82c1.5-3.1 3.4-6 6.4-8.5 2.8-2.6 7.2-4.5 11.9-4.5s9 2 11.9 4.5c3 2.5 4.9 5.4 6.4 8.5l39.8 82.1c0.3 1 2.3 3.3 4.7 5 2.4 1.9 5.2 2.9 6.3 3l90.3 12.2c4 0.7 8.1 1.8 12 4.9 3.8 3 6.9 8.6 6.8 14.1-0.1 7.2-3.8 12.1-7.6 15.9z" fill="#1296db" p-id="1749"></path><path d="M926.3 301.9L768.1 201.3c-18.1-11.5-42.4-6.1-53.9 12l-9.6 15.1c-16.3-11.1-31.3-15.3-44.3-15.3-11.3 0.1-20.6 3.1-27.8 6.8-6.2-37.8-21.8-71.7-44.1-98.4-29.3-35-70.8-57.5-117-57.5s-87.8 22.5-117 57.5c-29.3 35-47.1 82.8-47.1 135.2h31.3c0-45.4 15.5-86.2 39.8-115.2 24.4-29.1 57.2-46.3 93-46.3 35.8 0.1 68.6 17.2 93 46.3 24.3 29.1 39.8 69.8 39.8 115.2h31.3c0-6.8-0.3-13.4-0.9-20 5.8-3.9 14.5-8 25.5-8 9.7 0 21.7 3 36.1 13l-12.7 20c-11.5 18.1-6.1 42.4 12 53.9l158.3 100.6c18.1 11.6 42.4 6.1 53.9-12l30.7-48.4c11.5-18 6.1-42.3-12.1-53.9z m-192.9-58.8c7.6 0 13.6 6.1 13.6 13.6 0.1 7.6-6.1 13.6-13.6 13.6-7.6 0-13.6-6.1-13.6-13.6 0-7.6 6.1-13.6 13.6-13.6z m-29.6 59.4c-7-4.5-10.9-12.1-10.9-19.9 0-1.7 0.3-3.4 0.6-5h13c43 0 82.6 34.8 88.1 77.5l0.7 5.6-91.5-58.2z" fill="#1296db" p-id="1750"></path></svg>